# xmcd
#
# Track frame offsets: 
#        150
#        4392
#        12610
#        24850
#        33265
#        42785
#        52692
#        59580
#        81817
#        89715
#        95855
#        105802
#        119362
#        125632
#        133880
#        141350
#        155620
#        161767
#        171837
#        177832
#        182357
#        189892
#        194580
#        203935
#
# Disc length: 2806 seconds
#
# Revision: 2
# Processed by: cddbd v1.5.1PL0 Copyright (c) Steve Scherf et al.
# Submitted via: ExactAudioCopy v0.95a5
#
DISCID=4c0af418
DTITLE=Stephen Wade - Dancing in the Parlor
DYEAR=1997
DGENRE=Folk
TTITLE0=Theme from Beethhoven's Mandolin Sonata in C Major
TTITLE1=Bonaparte's Retreat
TTITLE2=Darling Cory
TTITLE3=Feather Bed
TTITLE4=Coal Creek March
TTITLE5=Rocky Hill
TTITLE6=Sunflower Dance
TTITLE7=Pretty Polly
TTITLE8=Walking in the Parlor
TTITLE9=The Ash Grove
TTITLE10=Minstrel Medley: Johnny Booker- Liza Jane - Old Jimmy Sutton
TTITLE11=Flowery Girls
TTITLE12=Foxhunter's Reel
TTITLE13=Lost John
TTITLE14=Greenback Dollar
TTITLE15=Malvern Hill
TTITLE16=Hobart Smith's Wabash Blues
TTITLE17=Over the Waterfall
TTITLE18=Elzic's Farewell
TTITLE19=Train on the Island
TTITLE20=Oh My Little Darling
TTITLE21=Reckless Rufus
TTITLE22=Rattler Treed a Possum
TTITLE23=Banging Breakdown
EXTD=
EXTT0=
EXTT1=
EXTT2=
EXTT3=
EXTT4=
EXTT5=
EXTT6=
EXTT7=
EXTT8=
EXTT9=
EXTT10=
EXTT11=
EXTT12=
EXTT13=
EXTT14=
EXTT15=
EXTT16=
EXTT17=
EXTT18=
EXTT19=
EXTT20=
EXTT21=
EXTT22=
EXTT23=
PLAYORDER=
